HIERARCHY
ROOT pelvis
{
	OFFSET 0.000000 0.000000 0.000000
	CHANNELS 6 Xposition Yposition Zposition Xrotation Yrotation Zrotation
	JOINT l_hip
	{
		OFFSET 0.195211 -0.245059 -0.022011
		CHANNELS 3 Xrotation Yrotation Zrotation
		JOINT l_knee
		{
			OFFSET 0.083896 -0.996307 -0.018298
			CHANNELS 3 Xrotation Yrotation Zrotation
			JOINT l_ankle
			{
				OFFSET -0.031606 -1.048662 -0.119000
				CHANNELS 3 Xrotation Yrotation Zrotation
				JOINT l_foot
				{
					OFFSET 0.063841 -0.149483 0.312863
					CHANNELS 3 Xrotation Yrotation Zrotation
					End Site
					{
						OFFSET 0.000000 0.000000 0.000000
					}
				}
			}
		}
	}
	JOINT r_hip
	{
		OFFSET -0.188785 -0.243354 -0.013119
		CHANNELS 3 Xrotation Yrotation Zrotation
		JOINT r_knee
		{
			OFFSET -0.098896 -1.013926 -0.025127
			CHANNELS 3 Xrotation Yrotation Zrotation
			JOINT r_ankle
			{
				OFFSET 0.038376 -1.049454 -0.114596
				CHANNELS 3 Xrotation Yrotation Zrotation
				JOINT r_foot
				{
					OFFSET -0.060300 -0.126955 0.322518
					CHANNELS 3 Xrotation Yrotation Zrotation
					End Site
					{
						OFFSET 0.000000 0.000000 0.000000
					}
				}
			}
		}
	}
	JOINT spine1
	{
		OFFSET -0.006861 0.282462 -0.060688
		CHANNELS 3 Xrotation Yrotation Zrotation
		JOINT spine2
		{
			OFFSET 0.009796 0.349212 -0.004686
			CHANNELS 3 Xrotation Yrotation Zrotation
			JOINT spine3
			{
				OFFSET 0.005545 0.134239 0.076232
				CHANNELS 3 Xrotation Yrotation Zrotation
				JOINT neck
				{
					OFFSET -0.005369 0.569656 -0.136135
					CHANNELS 3 Xrotation Yrotation Zrotation
					JOINT head
					{
						OFFSET 0.009621 0.170484 0.137338
						CHANNELS 3 Xrotation Yrotation Zrotation
						End Site
						{
							OFFSET 0.000000 0.000000 0.000000
						}
					}
				}
				JOINT l_collar
				{
					OFFSET 0.205981 0.322192 -0.100872
					CHANNELS 3 Xrotation Yrotation Zrotation
					JOINT l_shoulder
					{
						OFFSET 0.233388 0.086823 -0.019950
						CHANNELS 3 Xrotation Yrotation Zrotation
						JOINT l_elbow
						{
							OFFSET 0.687295 -0.032736 -0.075278
							CHANNELS 3 Xrotation Yrotation Zrotation
							JOINT l_wrist
							{
								OFFSET 0.651109 0.024639 0.000120
								CHANNELS 3 Xrotation Yrotation Zrotation
								JOINT l_hand
								{
									OFFSET 0.217934 -0.026487 -0.036124
									CHANNELS 3 Xrotation Yrotation Zrotation
									End Site
									{
										OFFSET 0.000000 0.000000 0.000000
									}
								}
							}
						}
					}
				}
				JOINT r_collar
				{
					OFFSET -0.210726 0.316244 -0.114374
					CHANNELS 3 Xrotation Yrotation Zrotation
					JOINT r_shoulder
					{
						OFFSET -0.244017 0.089684 -0.026814
						CHANNELS 3 Xrotation Yrotation Zrotation
						JOINT r_elbow
						{
							OFFSET -0.672913 -0.035979 -0.055153
							CHANNELS 3 Xrotation Yrotation Zrotation
							JOINT r_wrist
							{
								OFFSET -0.670689 0.023586 -0.009661
								CHANNELS 3 Xrotation Yrotation Zrotation
								JOINT r_hand
								{
									OFFSET -0.219937 -0.019827 -0.028502
									CHANNELS 3 Xrotation Yrotation Zrotation
									End Site
									{
										OFFSET 0.000000 0.000000 0.000000
									}
								}
							}
						}
					}
				}
			}
		}
	}
}
MOTION
Frames: 11
Frame Time: 0.016667
0.000000 0.000000 0.000000 0.000000 0.000000 0.000000 -8.039709 13.135036 8.498786 4.816484 6.367969 -3.665575 0.000000 0.000000 0.000000 0.000000 0.000000 0.000000 -4.499266 -9.297177 -4.531509 -0.238441 -14.829072 5.797804 0.000000 0.000000 0.000000 0.000000 0.000000 0.000000 23.666049 5.001382 -0.105401 4.289270 -1.330905 4.619462 1.489461 0.145800 5.270070 27.344906 9.654029 22.119390 24.334033 -5.036809 1.465427 -0.753798 -7.305102 -20.396197 -6.359845 -19.142805 -67.637172 11.653010 -37.086313 18.695463 0.000000 0.000000 0.000000 0.000000 0.000000 0.000000 -8.501263 15.849122 9.462204 -31.188544 42.925414 70.696084 148.979366 64.994078 -168.283597 0.000000 0.000000 0.000000 0.000000 0.000000 0.000000 
0.000000 0.000000 0.000000 0.000000 0.000000 0.000000 -8.089280 13.132549 8.683284 4.834957 6.464404 -3.587503 0.000000 0.000000 0.000000 0.000000 0.000000 0.000000 -4.536941 -9.314564 -4.368237 -0.186131 -14.830921 5.901906 0.000000 0.000000 0.000000 0.000000 0.000000 0.000000 23.705044 4.977941 -0.076931 4.302871 -1.278035 4.512123 1.431481 0.175530 5.232034 27.290136 9.584292 21.979766 24.240617 -4.980154 1.402361 -0.804954 -7.243049 -20.508579 -6.385481 -19.105504 -67.846052 11.461477 -37.228548 18.859272 0.000000 0.000000 0.000000 0.000000 0.000000 0.000000 -8.509499 15.891617 9.367495 -31.364117 42.918960 70.576536 148.825512 65.016039 -168.255853 0.000000 0.000000 0.000000 0.000000 0.000000 0.000000 
0.000000 0.000000 0.000000 0.000000 0.000000 0.000000 -8.077188 13.159507 8.843544 4.863707 6.500855 -3.476228 0.000000 0.000000 0.000000 0.000000 0.000000 0.000000 -4.519982 -9.357391 -4.216260 -0.126886 -14.797789 5.988839 0.000000 0.000000 0.000000 0.000000 0.000000 0.000000 23.764738 4.941668 -0.036490 4.316381 -1.247652 4.394791 1.403408 0.173660 5.189759 27.268465 9.475901 21.845297 24.195681 -4.971704 1.343273 -0.861077 -7.181939 -20.600587 -6.435049 -19.089739 -68.075032 11.321937 -37.315263 18.993528 0.000000 0.000000 0.000000 0.000000 0.000000 0.000000 -8.549309 15.900461 9.225763 -31.466251 42.910020 70.427464 148.829588 65.048496 -168.329359 0.000000 0.000000 0.000000 0.000000 0.000000 0.000000 
0.000000 0.000000 0.000000 0.000000 0.000000 0.000000 -8.058963 13.166817 8.963682 4.924820 6.509764 -3.359218 0.000000 0.000000 0.000000 0.000000 0.000000 0.000000 -4.516146 -9.387077 -4.111239 -0.032746 -14.693709 6.072187 0.000000 0.000000 0.000000 0.000000 0.000000 0.000000 23.774618 4.888045 -0.004713 4.366359 -1.243948 4.271845 1.406860 0.137372 5.125927 27.199937 9.379968 21.747304 24.156210 -4.951744 1.274044 -0.895217 -7.168650 -20.692624 -6.493633 -19.089321 -68.243698 11.249870 -37.359416 19.111692 0.000000 0.000000 0.000000 0.000000 0.000000 0.000000 -8.601381 15.905059 9.084190 -31.514854 42.918052 70.259568 148.862998 65.054322 -168.417038 0.000000 0.000000 0.000000 0.000000 0.000000 0.000000 
0.000000 0.000000 0.000000 0.000000 0.000000 0.000000 -8.089468 13.149839 9.080478 5.035662 6.520231 -3.245726 0.000000 0.000000 0.000000 0.000000 0.000000 0.000000 -4.598631 -9.370615 -4.040388 0.166304 -14.559924 6.184661 0.000000 0.000000 0.000000 0.000000 0.000000 0.000000 23.778044 4.788223 0.044437 4.407683 -1.252186 4.143102 1.417302 0.072523 5.028866 27.083414 9.290904 21.670284 24.187554 -4.946502 1.157922 -0.902708 -7.168519 -20.807807 -6.565615 -19.105365 -68.335469 11.238292 -37.337380 19.208814 0.000000 0.000000 0.000000 0.000000 0.000000 0.000000 -8.680735 15.898642 8.987484 -31.547115 42.977529 70.100203 148.877475 65.089616 -168.462373 0.000000 0.000000 0.000000 0.000000 0.000000 0.000000 
0.000000 0.000000 0.000000 0.000000 0.000000 0.000000 -8.124824 13.117889 9.187845 5.167477 6.547048 -3.129447 0.000000 0.000000 0.000000 0.000000 0.000000 0.000000 -4.749477 -9.291519 -3.963613 0.472505 -14.400958 6.290582 0.000000 0.000000 0.000000 0.000000 0.000000 0.000000 23.809468 4.655177 0.062754 4.440869 -1.244414 4.004180 1.424370 0.004589 4.913610 26.951257 9.246499 21.615013 24.254810 -4.976905 1.044945 -0.907865 -7.163017 -20.909510 -6.628711 -19.155981 -68.368456 11.280328 -37.300124 19.268842 0.000000 0.000000 0.000000 0.000000 0.000000 0.000000 -8.768316 15.874711 8.911997 -31.540327 43.059886 69.986644 148.977490 65.128753 -168.568535 0.000000 0.000000 0.000000 0.000000 0.000000 0.000000 
0.000000 0.000000 0.000000 0.000000 0.000000 0.000000 -8.131445 13.101140 9.345688 5.307860 6.565137 -3.003988 0.000000 0.000000 0.000000 0.000000 0.000000 0.000000 -4.825590 -9.188642 -3.781372 0.759005 -14.271324 6.343695 0.000000 0.000000 0.000000 0.000000 0.000000 0.000000 23.846305 4.523222 0.033124 4.487563 -1.256725 3.907579 1.420788 -0.059261 4.834294 26.919623 9.227474 21.537151 24.284062 -5.040543 0.973909 -0.904182 -7.224750 -21.007743 -6.630694 -19.212879 -68.326062 11.325855 -37.336070 19.282606 0.000000 0.000000 0.000000 0.000000 0.000000 0.000000 -8.823462 15.878016 8.883307 -31.456507 43.093527 69.844132 149.122058 65.128629 -168.694450 0.000000 0.000000 0.000000 0.000000 0.000000 0.000000 
0.000000 0.000000 0.000000 0.000000 0.000000 0.000000 -8.152303 13.052409 9.536332 5.454104 6.577259 -2.884014 0.000000 0.000000 0.000000 0.000000 0.000000 0.000000 -4.818292 -9.086101 -3.579182 0.926673 -14.204680 6.428910 0.000000 0.000000 0.000000 0.000000 0.000000 0.000000 23.856607 4.409425 -0.037476 4.529867 -1.330743 3.859327 1.402936 -0.138617 4.775027 26.949177 9.212239 21.466026 24.363300 -5.129806 0.956143 -0.880564 -7.360017 -21.128742 -6.590464 -19.283195 -68.209824 11.355201 -37.404066 19.273829 0.000000 0.000000 0.000000 0.000000 0.000000 0.000000 -8.860583 15.889145 8.937076 -31.319113 43.096194 69.673717 149.212472 65.112601 -168.759937 0.000000 0.000000 0.000000 0.000000 0.000000 0.000000 
0.000000 0.000000 0.000000 0.000000 0.000000 0.000000 -8.172996 12.981921 9.737991 5.600780 6.612710 -2.777377 0.000000 0.000000 0.000000 0.000000 0.000000 0.000000 -4.765918 -8.986888 -3.372961 1.011859 -14.150991 6.529939 0.000000 0.000000 0.000000 0.000000 0.000000 0.000000 23.831745 4.298642 -0.131376 4.591740 -1.439964 3.830392 1.373895 -0.222641 4.708727 27.007353 9.168869 21.397950 24.483427 -5.248114 0.986826 -0.862021 -7.525474 -21.254099 -6.533350 -19.354035 -68.058863 11.392181 -37.465017 19.249102 0.000000 0.000000 0.000000 0.000000 0.000000 0.000000 -8.893452 15.887136 9.040820 -31.102622 43.051254 69.463381 149.094747 65.078037 -168.650111 0.000000 0.000000 0.000000 0.000000 0.000000 0.000000 
0.000000 0.000000 0.000000 0.000000 0.000000 0.000000 -8.176953 12.910211 9.923637 5.723107 6.662605 -2.686010 0.000000 0.000000 0.000000 0.000000 0.000000 0.000000 -4.675785 -8.913925 -3.185315 1.010847 -14.087357 6.647346 0.000000 0.000000 0.000000 0.000000 0.000000 0.000000 23.765097 4.196609 -0.248538 4.670295 -1.580619 3.796314 1.356352 -0.311997 4.628921 27.079988 9.090308 21.332534 24.604953 -5.413047 1.084016 -0.855074 -7.708880 -21.351537 -6.466697 -19.423767 -67.901980 11.433210 -37.546752 19.202611 0.000000 0.000000 0.000000 0.000000 0.000000 0.000000 -8.933153 15.867276 9.141209 -30.854089 42.958419 69.300515 148.756792 65.016921 -168.349469 0.000000 0.000000 0.000000 0.000000 0.000000 0.000000 
0.000000 0.000000 0.000000 0.000000 0.000000 0.000000 -8.207370 12.834838 10.113469 5.860878 6.738954 -2.615218 0.000000 0.000000 0.000000 0.000000 0.000000 0.000000 -4.541958 -8.878992 -3.016213 0.880551 -14.030312 6.796437 0.000000 0.000000 0.000000 0.000000 0.000000 0.000000 23.671536 4.102843 -0.379215 4.757355 -1.748405 3.759351 1.337521 -0.411463 4.531719 27.103906 8.973776 21.266671 24.780549 -5.639963 1.201715 -0.853059 -7.911965 -21.468305 -6.403113 -19.487114 -67.695281 11.474151 -37.620160 19.136754 0.000000 0.000000 0.000000 0.000000 0.000000 0.000000 -8.992428 15.843002 9.295770 -30.584231 42.852508 69.153511 148.343497 64.919034 -167.989455 0.000000 0.000000 0.000000 0.000000 0.000000 0.000000 
